PathFileType	4	(X/Y/Z)	/Users/itak/Documents/Research/Walk-IL/dataset/trc/00034_00004.trc
DataRate	CameraRate	NumFrames	NumMarkers	Units	OrigDataRate	OrigDataStartFrame	OrigNumFrames
100.000000	100.000000	4	53	mm	100.000000	201	806
Frame#	Time	RPSI			LPSI			L3			STRN			T10			C7			CLAV			RBAK			LBAK			LSHO			LUPA			LAEL			LAOL			LWTS			LWPS			LFRA			LIFD			LHPS			LHTS			RSHO			RUPA			RAEL			RAOL			RWTS			RWPS			RFRA			RIFD			RHTS			RHPS			RBHD			LFHD			RFHD			LBHD			LHIP			RHIP			RASI			LASI			LKNE			LTHI			LANK			LTIP			LTOE			LMT1			LMT5			LHEE			RKNE			RTHI			RANK			RTIP			RTOE			RMT1			RMT5			RHEE			
		X1	Y1	Z1	X2	Y2	Z2	X3	Y3	Z3	X4	Y4	Z4	X5	Y5	Z5	X6	Y6	Z6	X7	Y7	Z7	X8	Y8	Z8	X9	Y9	Z9	X10	Y10	Z10	X11	Y11	Z11	X12	Y12	Z12	X13	Y13	Z13	X14	Y14	Z14	X15	Y15	Z15	X16	Y16	Z16	X17	Y17	Z17	X18	Y18	Z18	X19	Y19	Z19	X20	Y20	Z20	X21	Y21	Z21	X22	Y22	Z22	X23	Y23	Z23	X24	Y24	Z24	X25	Y25	Z25	X26	Y26	Z26	X27	Y27	Z27	X28	Y28	Z28	X29	Y29	Z29	X30	Y30	Z30	X31	Y31	Z31	X32	Y32	Z32	X33	Y33	Z33	X34	Y34	Z34	X35	Y35	Z35	X36	Y36	Z36	X37	Y37	Z37	X38	Y38	Z38	X39	Y39	Z39	X40	Y40	Z40	X41	Y41	Z41	X42	Y42	Z42	X43	Y43	Z43	X44	Y44	Z44	X45	Y45	Z45	X46	Y46	Z46	X47	Y47	Z47	X48	Y48	Z48	X49	Y49	Z49	X50	Y50	Z50	X51	Y51	Z51	X52	Y52	Z52	X53	Y53	Z53	

202	2.01	-343.1333618164062	1022.130249023438	507.2658996582031	-492.1191711425781	1027.758666992188	576.329833984375	-416.8587036132812	1088.799194335938	552.3230590820312	-488.332763671875	1278.93701171875	344.1304016113281	-400.08935546875	1232.721557617188	579.1073608398438	-415.0625305175781	1501.351928710938	526.3845825195312	-468.4957885742188	1404.440307617188	381.858154296875	-328.9931335449219	1358.47412109375	556.9629516601562	-499.5838317871094	1469.563598632812	579.7296142578125	-604.0123291015625	1479.199096679688	508.3873596191406	-675.1060180664062	1369.538696289062	581.5072631835938	-720.6015014648438	1162.380004882812	629.4323120117188	-617.6354370117188	1143.349243164062	649.5392456054688	-725.04833984375	898.5081787109375	556.856689453125	-741.19921875	895.9666137695312	644.6400146484375	-742.7755126953125	1047.652099609375	634.0614624023438	-733.7902221679688	711.038818359375	547.9793701171875	-760.0857543945312	804.2561645507812	622.9957885742188	-752.3832397460938	805.6659545898438	552.1304931640625	-276.4187927246094	1469.042236328125	400.2030334472656	-208.2507629394531	1397.347900390625	395.94921875	-175.8389434814453	1132.49755859375	447.7196044921875	-267.0503234863281	1110.8447265625	481.1317749023438	-266.7389221191406	877.3378295898438	336.6027526855469	-186.1821441650391	855.884033203125	376.3158569335938	-169.4926605224609	1053.701782226562	432.5869445800781	-303.779296875	695.5916137695312	319.2616271972656	-273.8648681640625	770.1748657226562	297.8446655273438	-209.5519104003906	757.7457885742188	335.3499755859375	-493.7389831542969	1691.767578125	411.9089660644531	-327.563232421875	1635.992309570312	279.7360229492188	-420.12939453125	1649.123901367188	249.7466583251953	-356.6153869628906	1667.699584960938	449.8104248046875	-644.2725219726562	941.4737548828125	518.1207275390625	-305.6217651367188	897.3543090820312	368.7329406738281	-407.8236694335938	941.664794921875	298.5805358886719	-620.653076171875	989.5482177734375	391.8153381347656	-673.992431640625	540.4984741210938	299.0824890136719	-687.8660278320312	660.4619140625	382.4606018066406	-747.1084594726562	40.17241287231445	360.6460266113281	-726.2243041992188	295.2798156738281	347.1866149902344	-664.8867797851562	41.75133895874023	146.6267395019531	-654.3490600585938	49.20304870605469	207.087890625	-758.9879150390625	38.37883758544922	236.1950073242188	-698.8045043945312	47.68162155151367	433.1719665527344	-377.5430297851562	462.0094299316406	430.6627197265625	-334.0616760253906	729.1611328125	368.5451354980469	-237.3250122070312	141.5113220214844	800.8275146484375	-349.8707885742188	356.5830383300781	513.8003540039062	-423.5194396972656	41.30754470825195	736.5628662109375	-400.9642639160156	74.49971008300781	774.1089477539062	-323.7470092773438	45.45427703857422	722.24609375	-235.2239990234375	191.6428833007812	851.4995727539062	
203	2.02	-348.1547241210938	1022.388244628906	500.1614074707031	-498.0447387695312	1028.608276367188	566.8140869140625	-422.5900268554688	1089.627197265625	544.2125244140625	-490.40771484375	1279.764770507812	334.6313781738281	-406.5873413085938	1233.56494140625	571.1630249023438	-421.0036010742188	1502.192260742188	518.3328247070312	-471.333984375	1405.276611328125	372.7318725585938	-335.398681640625	1359.3828125	550.6232299804688	-506.469482421875	1470.40869140625	569.9752807617188	-609.2509765625	1480.197143554688	496.4197387695312	-682.4008178710938	1370.52001953125	567.52197265625	-729.3019409179688	1163.204956054688	613.6387329101562	-626.922119140625	1144.068481445312	636.273681640625	-732.2200317382812	899.2115478515625	541.0902709960938	-750.5206909179688	896.8418579101562	628.4024658203125	-751.6934814453125	1048.515258789062	617.6513061523438	-740.619140625	711.6521606445312	532.4195556640625	-768.8440551757812	805.0940551757812	606.504638671875	-759.5389404296875	806.3250122070312	535.74853515625	-279.7786254882812	1469.984497070312	394.9426879882812	-211.4238739013672	1398.432861328125	392.2773132324219	-179.6835327148438	1134.189575195312	446.3367309570312	-271.63134765625	1112.328857421875	477.1734008789062	-265.3663940429688	876.99609375	335.680419921875	-185.9746704101562	856.7278442382812	378.1989440917969	-172.3584594726562	1055.406860351562	432.1785888671875	-300.3560180664062	694.6778564453125	319.588134765625	-270.35791015625	769.2537231445312	298.1518859863281	-207.1650390625	757.900634765625	337.8554077148438	-497.0856628417969	1692.62646484375	402.2908630371094	-328.6482238769531	1636.690551757812	273.1782531738281	-420.649169921875	1649.824829101562	241.499755859375	-360.6366271972656	1668.470825195312	442.7144775390625	-649.5525512695312	942.9181518554688	506.6729431152344	-309.09765625	897.4224243164062	361.9775390625	-409.8430786132812	942.4478759765625	290.6528930664062	-623.9086303710938	990.5081176757812	380.5310668945312	-677.239990234375	539.7698364257812	290.6871032714844	-691.85009765625	660.7099609375	373.0278930664062	-747.5083618164062	39.93845748901367	360.5686950683594	-728.26904296875	294.8497619628906	342.68017578125	-665.6148681640625	40.95608520507812	146.2403717041016	-655.1580810546875	49.06763458251953	206.703369140625	-759.8806762695312	37.68898010253906	236.2060546875	-699.2122802734375	47.87035369873047	433.0757751464844	-382.8836975097656	460.7354125976562	414.037109375	-337.9834594726562	729.3724365234375	358.7092590332031	-243.1288757324219	151.7861785888672	793.4834594726562	-355.3697814941406	356.771728515625	498.8837280273438	-424.9627685546875	40.66642379760742	733.831787109375	-403.830322265625	77.82289886474609	769.1851806640625	-325.2932434082031	47.89793395996094	719.7177734375	-243.4801788330078	204.2890014648438	841.6721801757812	
204	2.03	-353.0071105957031	1022.724670410156	493.3399353027344	-503.82373046875	1029.590454101562	557.4437255859375	-428.2150573730469	1090.576293945312	536.2577514648438	-492.2252807617188	1280.607055664062	325.2159118652344	-413.0081176757812	1234.544311523438	563.2816162109375	-426.7611694335938	1503.135131835938	510.2158508300781	-473.984130859375	1406.151489257812	363.5926818847656	-341.7033081054688	1360.427612304688	544.2598876953125	-513.2794799804688	1471.371948242188	560.050537109375	-614.2183227539062	1481.243408203125	484.3876037597656	-689.3931274414062	1371.54541015625	553.4495849609375	-737.681884765625	1164.100708007812	597.753662109375	-635.9796142578125	1144.81884765625	622.908447265625	-739.100341796875	900.0420532226562	525.1011352539062	-759.5791625976562	897.776123046875	611.8795166015625	-760.3042602539062	1049.445922851562	601.08984375	-747.2072143554688	712.412353515625	516.5092163085938	-777.3787231445312	806.0274658203125	589.6442260742188	-766.4732055664062	807.1458740234375	519.0496826171875	-283.0309753417969	1470.989624023438	389.6796875	-214.5138092041016	1399.57958984375	388.6244812011719	-183.4786376953125	1135.934692382812	444.8863525390625	-276.0917053222656	1113.806518554688	473.1751708984375	-264.0880737304688	876.7981567382812	334.8812255859375	-185.9275817871094	857.700439453125	380.1177673339844	-175.2312164306641	1057.180786132812	431.7283020019531	-297.2621459960938	693.9640502929688	320.1756591796875	-267.0856628417969	768.5028076171875	298.6831665039062	-205.0722808837891	758.201416015625	340.4957580566406	-500.2456970214844	1693.557739257812	392.6864013671875	-329.6671447753906	1637.494262695312	266.6209411621094	-421.0750732421875	1650.627563476562	233.2870635986328	-364.5132141113281	1669.316528320312	435.5499267578125	-654.5303955078125	944.3740844726562	495.4073181152344	-312.3121032714844	897.5810546875	355.4795532226562	-411.5197448730469	943.2979736328125	282.9783935546875	-626.8488159179688	991.4281616210938	369.41943359375	-680.251953125	538.8985595703125	283.1122741699219	-695.5587158203125	660.7608642578125	364.3208312988281	-747.78564453125	39.8067741394043	360.5389709472656	-729.977783203125	294.3567810058594	338.8532409667969	-666.1317749023438	40.59346008300781	146.0239105224609	-655.7373657226562	49.11090087890625	206.4766845703125	-760.5491943359375	37.32783126831055	236.2574768066406	-699.5087890625	47.9562873840332	433.037841796875	-388.1830139160156	459.7308349609375	396.8775939941406	-341.664306640625	729.7584228515625	348.8387451171875	-249.753662109375	162.5201110839844	785.090087890625	-361.0919799804688	357.2155151367188	483.2310791015625	-426.5752258300781	39.79540634155273	730.1937255859375	-406.9869689941406	81.32262420654297	763.3565063476562	-327.08203125	51.23113632202148	716.2282104492188	-252.7149353027344	217.0330047607422	830.7757568359375	
205	2.04	-357.6862487792969	1023.148010253906	486.7716369628906	-509.4304504394531	1030.690063476562	548.2251586914062	-433.697265625	1091.649047851562	528.4600219726562	-493.7842712402344	1281.4619140625	315.8816833496094	-419.3436279296875	1235.654174804688	555.4808959960938	-432.3351745605469	1504.173583984375	502.0337524414062	-476.4304809570312	1407.059814453125	354.454345703125	-347.9087219238281	1361.596435546875	537.88623046875	-520.0055541992188	1472.447265625	549.9613037109375	-618.9560546875	1482.31103515625	472.2719421386719	-696.0695190429688	1372.592895507812	539.302978515625	-745.72265625	1165.051391601562	581.8072509765625	-644.785888671875	1145.58447265625	609.4671630859375	-745.6716918945312	900.9962158203125	508.9188842773438	-768.3531494140625	898.7553100585938	595.0985717773438	-768.5908203125	1050.429443359375	584.4108276367188	-753.6216430664062	713.3369140625	500.188720703125	-785.68310546875	807.048828125	572.4214477539062	-773.1674194335938	808.1353149414062	502.0464172363281	-286.1595764160156	1472.042724609375	384.4352722167969	-217.5156555175781	1400.770263671875	385.0177307128906	-187.2067413330078	1137.704711914062	443.3627624511719	-280.4096984863281	1115.276977539062	469.1703796386719	-262.9306640625	876.733642578125	334.18603515625	-186.0329284667969	858.7843627929688	382.0210571289062	-178.1047668457031	1058.99755859375	431.2163696289062	-294.5343322753906	693.4309692382812	320.9955444335938	-264.1044006347656	767.9119873046875	299.3944396972656	-203.2929229736328	758.6382446289062	343.2074584960938	-503.2156982421875	1694.560546875	383.09765625	-330.6072082519531	1638.380615234375	260.0746765136719	-421.388427734375	1651.513916015625	225.1115417480469	-368.2383117675781	1670.22412109375	428.3301391601562	-659.1889038085938	945.8370361328125	484.3244934082031	-315.2679748535156	897.8345947265625	349.204345703125	-412.884521484375	944.2225952148438	275.5421142578125	-629.4810791015625	992.3280639648438	358.4877319335938	-683.0050659179688	537.938720703125	276.2482299804688	-698.9426879882812	660.6925659179688	356.1836853027344	-747.9742431640625	39.74541091918945	360.5278015136719	-731.4137573242188	293.8270568847656	335.5833740234375	-666.4578857421875	40.49587631225586	145.9237518310547	-656.1151123046875	49.23141479492188	206.3622894287109	-761.0140380859375	37.16960906982422	236.3190155029297	-699.7265014648438	47.98854446411133	433.0372924804688	-393.3878784179688	459.0697021484375	379.3426208496094	-345.0916442871094	730.3375854492188	338.9931030273438	-257.2423095703125	173.4829254150391	775.6972045898438	-366.9704895019531	357.9508666992188	466.9809875488281	-428.298095703125	38.72533416748047	725.3699951171875	-410.4533386230469	84.89131927490234	756.3731689453125	-329.1452941894531	55.41788864135742	711.5740966796875	-262.9725036621094	229.5863342285156	818.953125	
